<svg 
 xmlns="http://www.w3.org/2000/svg"
 xmlns:xlink="http://www.w3.org/1999/xlink"
 width="14px" height="14px">
<path fill-rule="evenodd"  fill="rgb(235, 82, 57)"
 d="M10.000,10.000 L8.000,10.000 L8.000,8.000 L10.000,8.000 L10.000,10.000 ZM12.000,12.000 L10.000,12.000 L10.000,10.000 L12.000,10.000 L12.000,12.000 ZM14.000,14.000 L12.000,14.000 L12.000,12.000 L14.000,12.000 L14.000,14.000 ZM6.000,8.000 L6.000,6.000 L8.000,6.000 L8.000,8.000 L6.000,8.000 ZM4.000,10.000 L4.000,8.000 L6.000,8.000 L6.000,10.000 L4.000,10.000 ZM2.000,12.000 L2.000,10.000 L4.000,10.000 L4.000,12.000 L2.000,12.000 ZM-0.000,14.000 L-0.000,12.000 L2.000,12.000 L2.000,14.000 L-0.000,14.000 ZM4.000,4.000 L6.000,4.000 L6.000,6.000 L4.000,6.000 L4.000,4.000 ZM2.000,2.000 L4.000,2.000 L4.000,4.000 L2.000,4.000 L2.000,2.000 ZM-0.000,-0.000 L2.000,-0.000 L2.000,2.000 L-0.000,2.000 L-0.000,-0.000 ZM10.000,4.000 L10.000,6.000 L8.000,6.000 L8.000,4.000 L10.000,4.000 ZM12.000,2.000 L12.000,4.000 L10.000,4.000 L10.000,2.000 L12.000,2.000 ZM14.000,-0.000 L14.000,2.000 L12.000,2.000 L12.000,-0.000 L14.000,-0.000 Z"/>
</svg>