<svg 
 xmlns="http://www.w3.org/2000/svg"
 xmlns:xlink="http://www.w3.org/1999/xlink"
 width="19px" height="21px">
<path fill-rule="evenodd"  fill="rgb(255, 255, 255)"
 d="M17.898,5.015 L12.702,0.216 C12.590,0.114 12.445,-0.000 12.293,-0.000 L6.942,-0.000 C5.301,-0.000 4.171,0.852 4.171,2.086 L4.171,3.641 L3.152,3.641 C1.651,3.641 0.530,4.589 0.530,5.877 L0.530,18.013 C0.530,19.376 1.767,20.328 3.152,20.328 L12.020,20.328 C13.439,20.328 14.486,19.331 14.486,18.013 L14.486,16.687 L15.810,16.687 C17.148,16.687 18.127,15.622 18.127,14.223 L18.127,5.630 C18.127,5.621 18.200,5.612 18.200,5.604 C18.200,5.595 18.241,5.586 18.241,5.577 C18.241,5.322 18.121,5.104 17.898,5.015 ZM12.666,2.022 L16.049,4.854 L12.666,4.854 L12.666,2.022 ZM13.273,18.013 C13.273,18.730 12.685,19.115 12.020,19.115 L3.152,19.115 C2.447,19.115 1.744,18.696 1.744,18.013 L1.744,5.877 C1.744,5.088 2.683,4.854 3.152,4.854 L7.812,4.854 L7.812,9.521 C7.812,9.856 8.235,10.012 8.570,10.012 L13.273,10.012 L13.273,18.013 L13.273,18.013 ZM12.580,8.799 L9.025,8.799 L9.025,5.802 L12.580,8.799 ZM15.810,15.474 L14.486,15.474 L14.486,9.420 C14.486,9.249 14.490,9.087 14.365,8.972 L9.077,4.100 C8.978,3.897 8.791,3.756 8.551,3.756 C8.540,3.756 8.539,3.701 8.528,3.701 C8.517,3.701 8.515,3.641 8.503,3.641 L5.384,3.641 L5.384,2.086 C5.384,1.460 6.300,1.213 6.942,1.213 L11.452,1.213 L11.452,5.577 C11.452,5.912 11.876,6.068 12.211,6.068 L16.913,6.068 L16.913,14.223 C16.913,14.951 16.479,15.474 15.810,15.474 Z"/>
</svg>