<svg 
 xmlns="http://www.w3.org/2000/svg"
 xmlns:xlink="http://www.w3.org/1999/xlink"
 width="27px" height="21px">
<defs>
<filter filterUnits="userSpaceOnUse" id="Filter_0" x="0px" y="0px" width="27px" height="21px"  >
    <feOffset in="SourceAlpha" dx="0" dy="3" />
    <feGaussianBlur result="blurOut" stdDeviation="2" />
    <feFlood flood-color="rgb(60, 151, 60)" result="floodOut" />
    <feComposite operator="atop" in="floodOut" in2="blurOut" />
    <feComponentTransfer><feFuncA type="linear" slope="1"/></feComponentTransfer>
    <feMerge>
    <feMergeNode/>
    <feMergeNode in="SourceGraphic"/>
  </feMerge>
</filter>

</defs>
<g filter="url(#Filter_0)">
<path fill-rule="evenodd"  fill="rgb(255, 255, 255)"
 d="M16.096,7.111 L23.000,1.225 L23.000,12.860 L16.096,7.111 ZM3.454,0.382 C3.711,0.146 4.057,-0.000 4.438,-0.000 L21.562,-0.000 C21.945,-0.000 22.291,0.144 22.548,0.379 L13.000,8.400 L3.454,0.382 ZM3.000,12.860 L3.000,1.229 L9.904,7.111 L3.000,12.860 ZM13.000,9.800 L15.475,7.677 L22.545,13.620 C22.289,13.855 21.943,14.000 21.562,14.000 L4.438,14.000 C4.055,14.000 3.709,13.855 3.451,13.620 L10.526,7.677 L13.000,9.800 Z"/>
</g>
</svg>