<svg 
 xmlns="http://www.w3.org/2000/svg"
 xmlns:xlink="http://www.w3.org/1999/xlink"
 width="11px" height="9px">
<path fill-rule="evenodd"  fill="rgb(255, 255, 255)"
 d="M0.127,4.936 C0.042,4.845 -0.000,4.710 -0.000,4.619 C-0.000,4.529 0.042,4.394 0.127,4.303 L0.719,3.671 C0.888,3.490 1.141,3.490 1.310,3.671 L1.353,3.716 L3.678,6.381 C3.762,6.471 3.889,6.471 3.974,6.381 L9.638,0.103 L9.680,0.103 L9.680,0.103 L9.680,0.103 C9.850,-0.077 10.103,-0.077 10.272,0.103 L10.864,0.736 C11.033,0.916 11.033,1.187 10.864,1.368 L10.864,1.368 L10.864,1.368 L4.100,8.864 C4.016,8.955 3.931,9.000 3.805,9.000 C3.678,9.000 3.593,8.955 3.509,8.864 L0.211,5.071 L0.127,4.936 Z"/>
</svg>