<svg 
 xmlns="http://www.w3.org/2000/svg"
 xmlns:xlink="http://www.w3.org/1999/xlink"
 width="27px" height="19px">
<defs>
<filter filterUnits="userSpaceOnUse" id="Filter_0" x="0px" y="0px" width="27px" height="19px"  >
    <feOffset in="SourceAlpha" dx="0" dy="3" />
    <feGaussianBlur result="blurOut" stdDeviation="2" />
    <feFlood flood-color="rgb(82, 123, 168)" result="floodOut" />
    <feComposite operator="atop" in="floodOut" in2="blurOut" />
    <feComponentTransfer><feFuncA type="linear" slope="1"/></feComponentTransfer>
    <feMerge>
    <feMergeNode/>
    <feMergeNode in="SourceGraphic"/>
  </feMerge>
</filter>

</defs>
<g filter="url(#Filter_0)">
<path fill-rule="evenodd"  fill="rgb(255, 255, 255)"
 d="M22.893,10.839 C22.869,10.784 22.846,10.738 22.825,10.702 C22.478,10.045 21.815,9.238 20.836,8.281 L20.816,8.259 L20.805,8.248 L20.795,8.237 L20.784,8.237 C20.340,7.792 20.059,7.492 19.941,7.339 C19.726,7.047 19.677,6.751 19.795,6.451 C19.878,6.225 20.191,5.747 20.732,5.016 C21.017,4.629 21.242,4.319 21.409,4.085 C22.610,2.406 23.130,1.332 22.971,0.865 L22.909,0.756 C22.867,0.690 22.759,0.630 22.586,0.575 C22.412,0.520 22.190,0.511 21.920,0.547 L18.921,0.569 C18.872,0.551 18.803,0.553 18.713,0.575 C18.622,0.597 18.577,0.608 18.577,0.608 L18.525,0.635 L18.484,0.668 C18.449,0.690 18.411,0.728 18.369,0.783 C18.328,0.838 18.293,0.902 18.265,0.975 C17.939,1.858 17.568,2.680 17.151,3.439 C16.894,3.892 16.658,4.285 16.443,4.617 C16.228,4.949 16.047,5.194 15.902,5.351 C15.756,5.508 15.624,5.634 15.506,5.729 C15.388,5.824 15.298,5.864 15.235,5.849 C15.173,5.835 15.114,5.820 15.058,5.805 C14.961,5.740 14.883,5.650 14.824,5.537 C14.765,5.424 14.725,5.281 14.704,5.110 C14.683,4.938 14.671,4.790 14.668,4.666 C14.665,4.542 14.666,4.367 14.673,4.140 C14.680,3.914 14.683,3.761 14.683,3.680 C14.683,3.403 14.689,3.101 14.699,2.776 C14.709,2.452 14.718,2.194 14.725,2.004 C14.732,1.814 14.735,1.613 14.735,1.402 C14.735,1.190 14.723,1.024 14.699,0.903 C14.675,0.783 14.638,0.666 14.590,0.553 C14.541,0.440 14.470,0.352 14.376,0.290 C14.283,0.228 14.166,0.178 14.028,0.142 C13.660,0.054 13.191,0.007 12.622,-0.001 C11.331,-0.015 10.501,0.073 10.133,0.262 C9.988,0.343 9.856,0.452 9.738,0.591 C9.613,0.752 9.595,0.839 9.686,0.854 C10.102,0.920 10.397,1.077 10.571,1.325 L10.633,1.456 C10.682,1.551 10.730,1.719 10.779,1.960 C10.828,2.201 10.859,2.468 10.873,2.760 C10.907,3.293 10.907,3.750 10.873,4.129 C10.838,4.509 10.805,4.805 10.774,5.017 C10.742,5.228 10.696,5.400 10.633,5.531 C10.571,5.663 10.529,5.743 10.508,5.772 C10.487,5.802 10.470,5.820 10.456,5.827 C10.366,5.864 10.272,5.882 10.175,5.882 C10.078,5.882 9.960,5.831 9.821,5.729 C9.682,5.626 9.538,5.486 9.389,5.307 C9.240,5.128 9.071,4.878 8.884,4.556 C8.697,4.235 8.502,3.855 8.301,3.417 L8.134,3.099 C8.030,2.895 7.888,2.597 7.708,2.207 C7.527,1.816 7.367,1.438 7.229,1.073 C7.173,0.919 7.090,0.803 6.979,0.722 L6.927,0.689 C6.892,0.660 6.836,0.629 6.760,0.596 C6.684,0.563 6.604,0.540 6.521,0.525 L3.668,0.547 C3.376,0.547 3.178,0.616 3.074,0.755 L3.033,0.821 C3.012,0.857 3.001,0.916 3.001,0.996 C3.001,1.076 3.022,1.175 3.064,1.292 C3.480,2.322 3.933,3.315 4.422,4.271 C4.912,5.228 5.337,5.999 5.698,6.583 C6.059,7.167 6.427,7.718 6.801,8.237 C7.176,8.755 7.424,9.088 7.546,9.234 C7.667,9.380 7.763,9.489 7.832,9.562 L8.093,9.825 C8.259,10.000 8.504,10.210 8.827,10.455 C9.149,10.700 9.507,10.941 9.899,11.178 C10.291,11.415 10.748,11.609 11.268,11.759 C11.789,11.909 12.296,11.969 12.788,11.939 L13.986,11.939 C14.229,11.917 14.413,11.837 14.538,11.698 L14.579,11.644 C14.607,11.600 14.633,11.532 14.657,11.441 C14.681,11.350 14.694,11.249 14.694,11.140 C14.686,10.826 14.709,10.543 14.761,10.291 C14.813,10.039 14.872,9.849 14.938,9.722 C15.004,9.594 15.079,9.486 15.162,9.399 C15.245,9.311 15.305,9.258 15.339,9.240 C15.374,9.221 15.402,9.209 15.422,9.201 C15.589,9.143 15.785,9.199 16.011,9.371 C16.236,9.543 16.448,9.755 16.646,10.006 C16.844,10.259 17.082,10.541 17.359,10.855 C17.637,11.169 17.880,11.403 18.088,11.556 L18.296,11.688 C18.435,11.776 18.616,11.856 18.838,11.929 C19.060,12.002 19.254,12.020 19.421,11.984 L22.086,11.940 C22.350,11.940 22.555,11.894 22.700,11.803 C22.846,11.712 22.933,11.611 22.961,11.502 C22.989,11.392 22.990,11.268 22.966,11.129 C22.941,10.991 22.917,10.894 22.893,10.839 Z"/>
</g>
</svg>